<svg xmlns="http://www.w3.org/2000/svg" width="512" height="512" viewBox="0 0 32 32" shape-rendering="crispEdges" image-rendering="pixelated">
  <!-- cream background -->
  <rect width="32" height="32" fill="#f5ecd9"/>

  <!-- handle (back loop) -->
  <rect x="6" y="6" width="9" height="2" fill="#1a1a1a"/>
  <rect x="5" y="8" width="2" height="6" fill="#1a1a1a"/>
  <rect x="14" y="8" width="2" height="3" fill="#1a1a1a"/>
  <rect x="6" y="9" width="1" height="4" fill="#3d6b25"/>
  <rect x="14" y="9" width="1" height="2" fill="#3d6b25"/>

  <!-- lid disk -->
  <rect x="11" y="9" width="6" height="1" fill="#1a1a1a"/>
  <rect x="10" y="10" width="8" height="1" fill="#1a1a1a"/>
  <rect x="11" y="10" width="6" height="1" fill="#3d6b25"/>
  <rect x="11" y="11" width="6" height="1" fill="#1f3a12"/>

  <!-- body outline -->
  <rect x="9" y="11" width="1" height="2" fill="#1a1a1a"/>
  <rect x="18" y="11" width="1" height="2" fill="#1a1a1a"/>
  <rect x="8" y="13" width="1" height="11" fill="#1a1a1a"/>
  <rect x="22" y="13" width="1" height="11" fill="#1a1a1a"/>
  <rect x="9" y="24" width="13" height="1" fill="#1a1a1a"/>
  <rect x="10" y="25" width="11" height="1" fill="#1a1a1a"/>

  <!-- body fill -->
  <rect x="9" y="13" width="13" height="11" fill="#6fa342"/>
  <rect x="9" y="13" width="13" height="1" fill="#b5d490"/>
  <rect x="9" y="13" width="2" height="11" fill="#b5d490"/>
  <rect x="11" y="14" width="1" height="6" fill="#b5d490"/>
  <rect x="20" y="14" width="2" height="10" fill="#3d6b25"/>
  <rect x="9" y="23" width="13" height="1" fill="#3d6b25"/>
  <rect x="10" y="24" width="11" height="1" fill="#1f3a12"/>
  <rect x="21" y="13" width="1" height="11" fill="#1f3a12"/>
  <rect x="12" y="15" width="1" height="2" fill="#e0f0c8"/>
  <rect x="13" y="14" width="1" height="1" fill="#e0f0c8"/>

  <!-- spout -->
  <rect x="22" y="14" width="6" height="1" fill="#1a1a1a"/>
  <rect x="22" y="18" width="6" height="1" fill="#1a1a1a"/>
  <rect x="28" y="14" width="1" height="5" fill="#1a1a1a"/>
  <rect x="29" y="13" width="1" height="2" fill="#1a1a1a"/>
  <rect x="29" y="18" width="1" height="2" fill="#1a1a1a"/>
  <rect x="22" y="15" width="6" height="3" fill="#6fa342"/>
  <rect x="22" y="15" width="6" height="1" fill="#b5d490"/>
  <rect x="22" y="17" width="6" height="1" fill="#3d6b25"/>
  <rect x="29" y="15" width="1" height="3" fill="#6fa342"/>

  <!-- water stream -->
  <rect x="29" y="20" width="1" height="2" fill="#3a6f9c"/>
  <rect x="28" y="21" width="1" height="2" fill="#6fa8d6"/>
  <rect x="28" y="22" width="1" height="3" fill="#3a6f9c"/>
  <rect x="27" y="24" width="1" height="3" fill="#6fa8d6"/>
  <rect x="26" y="26" width="1" height="2" fill="#b8d4ea"/>
  <rect x="27" y="27" width="1" height="2" fill="#3a6f9c"/>
  <rect x="28" y="28" width="2" height="1" fill="#1d4a6e"/>
</svg>
